{
  "accessors": [
    {
      "bufferView": 2,
      "componentType": 5126,
      "count": 7287,
      "max": [
        0.3425999879837036,
        0.6732199788093567,
        0.5297799706459045
      ],
      "min": [
        -0.3425999879837036,
        -0.7842199802398682,
        -0.16268999874591827
      ],
      "type": "VEC3"
    },
    {
      "bufferView": 2,
      "byteOffset": 87444,
      "componentType": 5126,
      "count": 7287,
      "max": [
        1.0,
        0.9999880790710449,
        0.9999991059303284
      ],
      "min": [
        -1.0,
        -0.9999274015426636,
        -1.0
      ],
      "type": "VEC3"
    },
    {
      "bufferView": 3,
      "componentType": 5126,
      "count": 7287,
      "max": [
        1.0,
        1.0,
        0.999809205532074,
        1.0
      ],
      "min": [
        -0.9999998807907104,
        -1.0,
        -0.9996936321258545,
        -1.0
      ],
      "type": "VEC4"
    },
    {
      "bufferView": 1,
      "componentType": 5126,
      "count": 7287,
      "max": [
        0.9970399737358093,
        0.9978500008583069
      ],
      "min": [
        0.003659999929368496,
        0.001019999966956675
      ],
      "type": "VEC2"
    },
    {
      "bufferView": 1,
      "byteOffset": 58296,
      "componentType": 5126,
      "count": 7287,
      "max": [
        0.9970399737358093,
        0.9978500008583069
      ],
      "min": [
        0.003659999929368496,
        0.001019999966956675
      ],
      "type": "VEC2"
    },
    {
      "bufferView": 1,
      "byteOffset": 116592,
      "componentType": 5126,
      "count": 7287,
      "max": [
        0.9970399737358093,
        0.9978500008583069
      ],
      "min": [
        0.003659999929368496,
        0.001019999966956675
      ],
      "type": "VEC2"
    },
    {
      "bufferView": 0,
      "componentType": 5125,
      "count": 35283,
      "type": "SCALAR"
    },
    {
      "bufferView": 2,
      "byteOffset": 174888,
      "componentType": 5126,
      "count": 8,
      "max": [
        0.2590399980545044,
        -0.5303500294685364,
        0.3398599922657013
      ],
      "min": [
        0.24761000275611877,
        -0.540369987487793,
        0.3117699921131134
      ],
      "type": "VEC3"
    },
    {
      "bufferView": 2,
      "byteOffset": 174984,
      "componentType": 5126,
      "count": 8,
      "max": [
        0.7891659736633301,
        0.7091076374053955,
        0.6702300906181335
      ],
      "min": [
        -0.08542127907276154,
        -0.7726273536682129,
        -0.6294602155685425
      ],
      "type": "VEC3"
    },
    {
      "bufferView": 3,
      "byteOffset": 116592,
      "componentType": 5126,
      "count": 8,
      "max": [
        0.8640225529670715,
        0.9010527729988098,
        0.47861167788505554,
        1.0
      ],
      "min": [
        -0.5692389011383057,
        0.2801700532436371,
        -0.5524520874023438,
        1.0
      ],
      "type": "VEC4"
    },
    {
      "bufferView": 1,
      "byteOffset": 174888,
      "componentType": 5126,
      "count": 8,
      "max": [
        0.3949500024318695,
        0.21769000589847565
      ],
      "min": [
        0.37356001138687134,
        0.17791999876499176
      ],
      "type": "VEC2"
    },
    {
      "bufferView": 1,
      "byteOffset": 174952,
      "componentType": 5126,
      "count": 8,
      "max": [
        0.3949500024318695,
        0.21769000589847565
      ],
      "min": [
        0.37356001138687134,
        0.17791999876499176
      ],
      "type": "VEC2"
    },
    {
      "bufferView": 1,
      "byteOffset": 175016,
      "componentType": 5126,
      "count": 8,
      "max": [
        0.3949500024318695,
        0.21769000589847565
      ],
      "min": [
        0.37356001138687134,
        0.17791999876499176
      ],
      "type": "VEC2"
    },
    {
      "bufferView": 0,
      "byteOffset": 141132,
      "componentType": 5125,
      "count": 30,
      "type": "SCALAR"
    }
  ],
  "asset": {
    "extras": {
      "author": "Karol Miklas (https://sketchfab.com/karolmiklas)",
      "license": "CC-BY-4.0 (http://creativecommons.org/licenses/by/4.0/)",
      "source": "https://sketchfab.com/3d-models/free-zuk-3d-model-bb4OJb5V4L0hgYjM3vtGvPB7ZMt",
      "title": "(FREE) Żuk 3D model"
    },
    "generator": "Sketchfab-12.65.0",
    "version": "2.0"
  },
  "bufferViews": [
    {
      "buffer": 0,
      "byteLength": 141252,
      "name": "floatBufferViews",
      "target": 34963
    },
    {
      "buffer": 0,
      "byteLength": 175080,
      "byteOffset": 141252,
      "byteStride": 8,
      "name": "floatBufferViews",
      "target": 34962
    },
    {
      "buffer": 0,
      "byteLength": 175080,
      "byteOffset": 316332,
      "byteStride": 12,
      "name": "floatBufferViews",
      "target": 34962
    },
    {
      "buffer": 0,
      "byteLength": 116720,
      "byteOffset": 491412,
      "byteStride": 16,
      "name": "floatBufferViews",
      "target": 34962
    }
  ],
  "buffers": [
    {
      "byteLength": 608132,
      "uri": "scene.bin"
    }
  ],
  "images": [
    {
      "uri": "textures/material_baseColor.jpeg"
    },
    {
      "uri": "textures/material_metallicRoughness.png"
    },
    {
      "uri": "textures/material_emissive.jpeg"
    },
    {
      "uri": "textures/material_normal.jpeg"
    }
  ],
  "materials": [
    {
      "emissiveFactor": [
        1.0,
        1.0,
        1.0
      ],
      "emissiveTexture": {
        "index": 2
      },
      "name": "material",
      "normalTexture": {
        "index": 3
      },
      "pbrMetallicRoughness": {
        "baseColorFactor": [
          0.6705290966686731,
          0.6705290966686731,
          0.6705290966686731,
          1.0
        ],
        "baseColorTexture": {
          "index": 0
        },
        "metallicFactor": 0.8407739452419605,
        "metallicRoughnessTexture": {
          "index": 1
        }
      }
    }
  ],
  "meshes": [
    {
      "name": "Plane.018_0",
      "primitives": [
        {
          "attributes": {
            "NORMAL": 1,
            "POSITION": 0,
            "TANGENT": 2,
            "TEXCOORD_0": 3,
            "TEXCOORD_1": 4,
            "TEXCOORD_2": 5
          },
          "indices": 6,
          "material": 0,
          "mode": 4
        }
      ]
    },
    {
      "name": "Plane.003_0",
      "primitives": [
        {
          "attributes": {
            "NORMAL": 8,
            "POSITION": 7,
            "TANGENT": 9,
            "TEXCOORD_0": 10,
            "TEXCOORD_1": 11,
            "TEXCOORD_2": 12
          },
          "indices": 13,
          "material": 0,
          "mode": 4
        }
      ]
    }
  ],
  "nodes": [
    {
      "children": [
        1
      ],
      "matrix": [
        1.0,
        0.0,
        0.0,
        0.0,
        0.0,
        2.220446049250313e-16,
        -1.0,
        0.0,
        0.0,
        1.0,
        2.220446049250313e-16,
        0.0,
        0.0029368209652602673,
        -0.003265916602686047,
        -0.0023524514399468907,
        1.0
      ],
      "name": "Sketchfab_model"
    },
    {
      "children": [
        2,
        4,
        6,
        8,
        10,
        12,
        14,
        16,
        18
      ],
      "name": "Root"
    },
    {
      "children": [
        3
      ],
      "matrix": [
        0.9251400000000001,
        0.0,
        0.0,
        0.0,
        0.0,
        0.9251400000000001,
        0.0,
        0.0,
        0.0,
        0.0,
        0.9251400000000001,
        0.0,
        0.0,
        0.0,
        0.0,
        1.0
      ],
      "name": "Plane.018"
    },
    {
      "mesh": 0,
      "name": "Plane.018_0"
    },
    {
      "children": [
        5
      ],
      "matrix": [
        0.15623000000000004,
        -0.18586000000000003,
        -0.16004000000000004,
        0.0,
        0.20868,
        0.0010300000000000003,
        0.20252,
        0.0,
        -0.12886999999999998,
        -0.22365000000000002,
        0.13392,
        0.0,
        -0.3834800000000001,
        -0.8078500000000001,
        0.50709,
        1.0
      ],
      "name": "Lamp.003"
    },
    {
      "name": "Lamp.003"
    },
    {
      "children": [
        7
      ],
      "matrix": [
        0.9251400000000001,
        0.0,
        0.0,
        0.0,
        0.0,
        0.9251400000000001,
        0.0,
        0.0,
        0.0,
        0.0,
        0.9251400000000001,
        0.0,
        0.0,
        0.0,
        0.0,
        1.0
      ],
      "name": "Plane.003"
    },
    {
      "mesh": 1,
      "name": "Plane.003_0"
    },
    {
      "children": [
        9
      ],
      "matrix": [
        0.16747000000000004,
        -0.23332,
        0.04557000000000001,
        0.0,
        0.10434,
        0.022050000000000007,
        -0.27054,
        0.0,
        0.21361000000000002,
        0.17216,
        0.09642000000000003,
        0.0,
        -0.3834800000000001,
        -0.8078500000000001,
        0.50709,
        1.0
      ],
      "name": "Lamp.000"
    },
    {
      "name": "Lamp.000"
    },
    {
      "children": [
        11
      ],
      "matrix": [
        -0.20061,
        -0.12007000000000001,
        -0.17293000000000003,
        0.0,
        -0.19858000000000003,
        0.028600000000000004,
        0.21051000000000003,
        0.0,
        -0.06991000000000001,
        0.26331000000000004,
        -0.10172000000000002,
        0.0,
        -0.7992900000000001,
        0.4481800000000001,
        0.42455000000000004,
        1.0
      ],
      "name": "Lamp.001"
    },
    {
      "name": "Lamp.001"
    },
    {
      "children": [
        13
      ],
      "matrix": [
        0.24508000000000002,
        -0.11180000000000001,
        -0.10955000000000001,
        0.0,
        -0.15425000000000003,
        -0.20712,
        -0.13369,
        0.0,
        -0.026630000000000004,
        0.17078000000000002,
        -0.23386,
        0.0,
        -0.3834800000000001,
        -0.8078500000000001,
        0.50709,
        1.0
      ],
      "name": "Lamp.002"
    },
    {
      "name": "Lamp.002"
    },
    {
      "children": [
        15
      ],
      "matrix": [
        0.06330000000000001,
        -0.07146000000000001,
        0.27468000000000004,
        0.0,
        0.20849000000000004,
        0.20267,
        0.004680000000000001,
        0.0,
        -0.19259000000000004,
        0.19592000000000004,
        0.09535000000000002,
        0.0,
        -0.3834800000000001,
        -0.8078500000000001,
        0.50709,
        1.0
      ],
      "name": "Lamp.004"
    },
    {
      "name": "Lamp.004"
    },
    {
      "children": [
        17
      ],
      "matrix": [
        -0.20061,
        -0.12007000000000001,
        -0.17293000000000003,
        0.0,
        -0.19858000000000003,
        0.028600000000000004,
        0.21051000000000003,
        0.0,
        -0.06991000000000001,
        0.26331000000000004,
        -0.10172000000000002,
        0.0,
        -0.32760000000000006,
        1.2082,
        0.5678700000000001,
        1.0
      ],
      "name": "Lamp.005"
    },
    {
      "name": "Lamp.005"
    },
    {
      "children": [
        19
      ],
      "matrix": [
        -0.20061,
        -0.12007000000000001,
        -0.17293000000000003,
        0.0,
        -0.19858000000000003,
        0.028600000000000004,
        0.21051000000000003,
        0.0,
        -0.06991000000000001,
        0.26331000000000004,
        -0.10172000000000002,
        0.0,
        1.3023500000000001,
        -0.23527,
        0.6247400000000002,
        1.0
      ],
      "name": "Lamp.006"
    },
    {
      "name": "Lamp.006"
    }
  ],
  "samplers": [
    {
      "magFilter": 9729,
      "minFilter": 9987,
      "wrapS": 10497,
      "wrapT": 10497
    }
  ],
  "scene": 0,
  "scenes": [
    {
      "name": "Sketchfab_Scene",
      "nodes": [
        0
      ]
    }
  ],
  "textures": [
    {
      "sampler": 0,
      "source": 0
    },
    {
      "sampler": 0,
      "source": 1
    },
    {
      "sampler": 0,
      "source": 2
    },
    {
      "sampler": 0,
      "source": 3
    }
  ]
}
